<?xml version="1.0" standalone="no"?>
<!DOCTYPE svg PUBLIC "-//W3C//DTD SVG 20010904//EN"
 "http://www.w3.org/TR/2001/REC-SVG-20010904/DTD/svg10.dtd">
<svg version="1.0" xmlns="http://www.w3.org/2000/svg"
 width="100.000000pt" height="100.000000pt" viewBox="0 0 100.000000 100.000000"
 preserveAspectRatio="xMidYMid meet">
<metadata>
Created by potrace 1.16, written by Peter Selinger 2001-2019
</metadata>
<g transform="translate(0.000000,100.000000) scale(0.100000,-0.100000)"
fill="#000000" stroke="none">
<path d="M447 966 c-72 -20 -127 -63 -160 -126 -26 -49 -28 -63 -25 -130 3
-66 17 -112 118 -387 63 -172 117 -313 120 -313 10 0 261 613 270 659 36 192
-136 349 -323 297z m169 -86 c178 -102 82 -380 -122 -357 -123 13 -204 145
-160 260 44 116 172 160 282 97z"/>
<path d="M403 863 c-7 -2 -13 -22 -13 -43 0 -21 -6 -43 -15 -50 -8 -7 -15 -23
-15 -36 0 -15 6 -24 15 -24 12 0 15 -13 15 -55 0 -66 21 -105 56 -105 14 0 27
7 30 15 4 9 19 15 39 15 20 0 35 -6 39 -15 9 -26 50 -17 74 15 16 21 22 43 22
80 0 27 5 50 10 50 6 0 10 14 10 30 0 17 -4 30 -10 30 -5 0 -10 17 -10 38 0
21 -5 43 -12 50 -12 12 -208 16 -235 5z m207 -128 l0 -46 -92 3 -93 3 -3 43
-3 42 95 0 96 0 0 -45z"/>
</g>
</svg>
